
<svg width="18" height="18" viewBox="0 0 18 18" fill="none" xmlns="http://www.w3.org/2000/svg">
<path d="M1.52051 1.52002H3.84475L5.93657 11.1269C6.00901 11.4821 6.20374 11.8008 6.48686 12.0273C6.76998 12.2537 7.12356 12.3738 7.48606 12.3665H13.4516C13.8141 12.3738 14.1677 12.2537 14.4508 12.0273C14.7339 11.8008 14.9287 11.4821 15.0011 11.1269L16.2407 4.61901H5.08434M8.10541 15.4655C8.10541 15.8933 7.75854 16.2402 7.33066 16.2402C6.90278 16.2402 6.55591 15.8933 6.55591 15.4655C6.55591 15.0376 6.90278 14.6907 7.33066 14.6907C7.75854 14.6907 8.10541 15.0376 8.10541 15.4655ZM14.3034 15.4655C14.3034 15.8933 13.9566 16.2402 13.5287 16.2402C13.1008 16.2402 12.7539 15.8933 12.7539 15.4655C12.7539 15.0376 13.1008 14.6907 13.5287 14.6907C13.9566 14.6907 14.3034 15.0376 14.3034 15.4655Z" stroke="black" stroke-width="1.54949" stroke-linecap="round" stroke-linejoin="round"/>
</svg>
