<svg width="19" height="17" viewBox="0 0 19 17" fill="none" xmlns="http://www.w3.org/2000/svg">
<path d="M16.3961 2.38841C16.0004 1.99251 15.5305 1.67846 15.0134 1.4642C14.4963 1.24993 13.942 1.13965 13.3823 1.13965C12.8226 1.13965 12.2683 1.24993 11.7512 1.4642C11.2341 1.67846 10.7642 1.99251 10.3685 2.38841L9.5473 3.20964L8.72607 2.38841C7.92677 1.58911 6.84269 1.14006 5.7123 1.14006C4.58192 1.14006 3.49784 1.58911 2.69854 2.38841C1.89924 3.18771 1.4502 4.27179 1.4502 5.40217C1.4502 6.53255 1.89924 7.61664 2.69854 8.41594L3.51977 9.23717L9.5473 15.2647L15.5748 9.23717L16.3961 8.41594C16.792 8.02023 17.106 7.5504 17.3203 7.03329C17.5345 6.51618 17.6448 5.96192 17.6448 5.40217C17.6448 4.84243 17.5345 4.28817 17.3203 3.77105C17.106 3.25394 16.792 2.78411 16.3961 2.38841Z" fill="#F26A31" stroke="#FF9163" stroke-width="1.54949" stroke-linecap="round" stroke-linejoin="round"/>
</svg>
