<svg width="18" height="17" viewBox="0 0 18 17" fill="none" xmlns="http://www.w3.org/2000/svg">
<path d="M15.7291 2.38841C15.3334 1.99251 14.8635 1.67846 14.3464 1.4642C13.8293 1.24993 13.2751 1.13965 12.7153 1.13965C12.1556 1.13965 11.6013 1.24993 11.0842 1.4642C10.5671 1.67846 10.0972 1.99251 9.70154 2.38841L8.88031 3.20964L8.05908 2.38841C7.25978 1.58911 6.17569 1.14006 5.04531 1.14006C3.91493 1.14006 2.83085 1.58911 2.03155 2.38841C1.23225 3.18771 0.783203 4.27179 0.783203 5.40217C0.783203 6.53255 1.23225 7.61664 2.03155 8.41594L2.85278 9.23717L8.88031 15.2647L14.9078 9.23717L15.7291 8.41594C16.125 8.02023 16.439 7.5504 16.6533 7.03329C16.8675 6.51618 16.9778 5.96192 16.9778 5.40217C16.9778 4.84243 16.8675 4.28817 16.6533 3.77105C16.439 3.25394 16.125 2.78411 15.7291 2.38841V2.38841Z" stroke="black" stroke-width="1.54949" stroke-linecap="round" stroke-linejoin="round"/>
</svg>
