<svg width="88" height="28" viewBox="0 0 88 28" fill="none" xmlns="http://www.w3.org/2000/svg">
<path d="M14.6238 27.1016V21.9644H5.78436V0H0V27.1016H14.6238Z" fill="#060809"/>
<path d="M25.041 27.5061C31.2298 27.5061 35.1535 23.2588 35.1535 17.1913C35.1535 11.1642 31.2298 6.87651 25.041 6.87651C19.0139 6.87651 15.1307 11.1642 15.1307 17.1913C15.1307 23.2588 19.0139 27.5061 25.041 27.5061ZM25.1219 22.8138C22.6949 22.8138 20.996 21.2363 20.996 17.1913C20.996 13.1058 22.6949 11.5687 25.1219 11.5687C27.5893 11.5687 29.2882 13.1058 29.2882 17.1913C29.2882 21.2363 27.5893 22.8138 25.1219 22.8138Z" fill="#060809"/>
<path d="M56.6832 27.1016V22.4093H48.879L42.7711 22.652L47.261 18.6879L56.2787 11.5283V7.28101H37.108V11.9732H41.8003L47.6655 11.6901L43.4183 15.3306L36.5417 22.8543V27.1016H56.6832Z" fill="#060809"/>
<path d="M65.5418 4.93491V0H59.7574V4.93491H65.5418ZM65.5418 27.1016V7.28101H59.7574V27.1016H65.5418Z" fill="#060809"/>
<path d="M78.6533 27.5061C83.3859 27.5061 86.6624 24.9172 87.8759 21.5194L83.0623 18.7284C82.5769 21.1958 81.323 22.6925 78.8555 22.6925C76.3072 22.6925 74.6083 20.8318 74.6083 17.1913C74.6083 13.5508 76.3072 11.6901 78.8555 11.6901C81.2825 11.6901 82.5769 13.1867 83.0623 15.6542L87.8759 12.8631C86.6624 9.46532 83.3859 6.87651 78.6533 6.87651C72.5453 6.87651 68.7026 11.1642 68.7026 17.1913C68.7026 23.2588 72.5453 27.5061 78.6533 27.5061Z" fill="#060809"/>
</svg>
