<svg width="118" height="37" viewBox="0 0 118 37" fill="none" xmlns="http://www.w3.org/2000/svg">
<path d="M19.5753 36.278V29.4014H7.74292V0H0V36.278H19.5753Z" fill="white"/>
<path d="M33.5197 36.8195C41.8041 36.8195 47.0563 31.1341 47.0563 23.0122C47.0563 14.9444 41.8041 9.20487 33.5197 9.20487C25.4519 9.20487 20.2539 14.9444 20.2539 23.0122C20.2539 31.1341 25.4519 36.8195 33.5197 36.8195ZM33.628 30.5385C30.3792 30.5385 28.1051 28.4268 28.1051 23.0122C28.1051 17.5434 30.3792 15.4858 33.628 15.4858C36.9309 15.4858 39.2051 17.5434 39.2051 23.0122C39.2051 28.4268 36.9309 30.5385 33.628 30.5385Z" fill="white"/>
<path d="M75.8758 36.278V29.997H65.4292L57.2531 30.3219L63.2633 25.0156L75.3344 15.4317V9.74633H49.6726V16.0273H55.9536L63.8048 15.6483L58.1194 20.5214L48.9146 30.5926V36.278H75.8758Z" fill="white"/>
<path d="M87.7339 6.60584V0H79.9909V6.60584H87.7339ZM87.7339 36.278V9.74633H79.9909V36.278H87.7339Z" fill="white"/>
<path d="M105.285 36.8195C111.62 36.8195 116.006 33.3541 117.63 28.8058L111.187 25.0697C110.537 28.3726 108.859 30.3761 105.556 30.3761C102.144 30.3761 99.8702 27.8853 99.8702 23.0122C99.8702 18.139 102.144 15.6483 105.556 15.6483C108.804 15.6483 110.537 17.6517 111.187 20.9546L117.63 17.2185C116.006 12.6702 111.62 9.20487 105.285 9.20487C97.1088 9.20487 91.9649 14.9444 91.9649 23.0122C91.9649 31.1341 97.1088 36.8195 105.285 36.8195Z" fill="white"/>
</svg>
