<svg width="20" height="20" viewBox="0 0 20 20" fill="none" xmlns="http://www.w3.org/2000/svg">
<path d="M1 1H3.72839L6.18394 12.2773C6.26898 12.6944 6.49757 13.0684 6.82992 13.3343C7.16227 13.6002 7.57734 13.7411 8.00287 13.7325H15.0057C15.4313 13.7411 15.8463 13.6002 16.1787 13.3343C16.511 13.0684 16.7396 12.6944 16.8247 12.2773L18.2798 4.63785H5.18353M8.72991 17.3703C8.72991 17.8726 8.32273 18.2798 7.82045 18.2798C7.31817 18.2798 6.91098 17.8726 6.91098 17.3703C6.91098 16.8681 7.31817 16.4609 7.82045 16.4609C8.32273 16.4609 8.72991 16.8681 8.72991 17.3703ZM16.0057 17.3703C16.0057 17.8726 15.5985 18.2798 15.0962 18.2798C14.5939 18.2798 14.1867 17.8726 14.1867 17.3703C14.1867 16.8681 14.5939 16.4609 15.0962 16.4609C15.5985 16.4609 16.0057 16.8681 16.0057 17.3703Z" stroke="#F5F5F5" stroke-width="1.81893" stroke-linecap="round" stroke-linejoin="round"/>
</svg>
