<svg width="14" height="15" viewBox="0 0 14 15" fill="none" xmlns="http://www.w3.org/2000/svg">
<path d="M6.06758 1.40576C6.3976 0.554271 7.6024 0.554273 7.93242 1.40576L9.0417 4.26786C9.18358 4.63394 9.52655 4.88312 9.91856 4.90493L12.9834 5.07549C13.8952 5.12623 14.2675 6.27206 13.5596 6.84905L11.1804 8.78848C10.8761 9.03654 10.7451 9.43973 10.8455 9.81928L11.6303 12.7868C11.8638 13.6696 10.8891 14.3778 10.1217 13.8829L7.54192 12.2194C7.21197 12.0067 6.78803 12.0067 6.45807 12.2194L3.87834 13.8829C3.11086 14.3778 2.13616 13.6696 2.36966 12.7868L3.15453 9.81928C3.25492 9.43972 3.12392 9.03654 2.8196 8.78848L0.440372 6.84905C-0.267461 6.27206 0.104844 5.12623 1.01664 5.07549L4.08145 4.90493C4.47345 4.88312 4.81642 4.63394 4.9583 4.26786L6.06758 1.40576Z" fill="#F26A31"/>
</svg>
